<?xml version="1.0" encoding="utf-8"?>
<!-- Generator: Adobe Illustrator 24.1.3, SVG Export Plug-In . SVG Version: 6.00 Build 0)  -->
<svg version="1.1" id="Layer_1" xmlns="http://www.w3.org/2000/svg" xmlns:xlink="http://www.w3.org/1999/xlink" x="0px" y="0px"
	 viewBox="0 0 150 150" style="enable-background:new 0 0 150 150;" xml:space="preserve">
<style type="text/css">
	.Graphic_x0020_Style_x0020_199{fill:none;stroke:#000000;stroke-width:2;stroke-miterlimit:10;}
</style>
<path class="Graphic_x0020_Style_x0020_199" d="M126.6,143H25.1c-0.8,0-1.5-0.7-1.5-1.5v-39.8h104.4v39.8
	C128.1,142.3,127.4,143,126.6,143z"/>
<path class="Graphic_x0020_Style_x0020_199" d="M97.7,7H27.2c-2,0-3.6,1.6-3.6,4.7v128.9c0,0.8,1.6,2.4,3.6,2.4h97.3
	c2,0,3.6-1.6,3.6-2.4V38.5c0-1.7-0.2-2.2-0.6-2.6L99.2,7.6C98.8,7.2,98.3,7,97.7,7z"/>
<path class="Graphic_x0020_Style_x0020_199" d="M99,10.4v25.8h25.8c1.1,0,1.7-1.3,0.9-2.1L101.1,9.5C100.3,8.7,99,9.3,99,10.4z"/>
<path d="M50.1,135.7h-4v-24.5h7c1,0,2.1,0.2,3.1,0.5c1,0.3,1.9,0.8,2.7,1.5c0.8,0.7,1.5,1.5,2,2.4s0.7,2,0.7,3.2
	c0,1.2-0.2,2.4-0.6,3.4c-0.4,1-1,1.9-1.8,2.5c-0.8,0.7-1.7,1.2-2.7,1.6s-2.2,0.6-3.5,0.6h-3V135.7z M50.1,114.3v9.7h3.7
	c0.5,0,1-0.1,1.4-0.2c0.5-0.2,0.9-0.4,1.3-0.8c0.4-0.4,0.7-0.9,1-1.6c0.2-0.7,0.4-1.5,0.4-2.5c0-0.4-0.1-0.9-0.2-1.4
	c-0.1-0.5-0.3-1-0.7-1.5c-0.3-0.5-0.8-0.9-1.4-1.2c-0.6-0.3-1.4-0.5-2.5-0.5H50.1z"/>
<path d="M86.1,122.8c0,2-0.2,3.7-0.6,5.2c-0.4,1.4-1,2.6-1.6,3.6s-1.4,1.7-2.2,2.3c-0.8,0.6-1.6,1-2.4,1.2c-0.8,0.3-1.5,0.5-2.1,0.5
	c-0.6,0.1-1.1,0.1-1.4,0.1h-9.3v-24.5h7.4c2.1,0,3.9,0.3,5.4,1s2.9,1.5,3.9,2.6s1.8,2.3,2.3,3.7C85.9,119.9,86.1,121.3,86.1,122.8z
	 M74.3,132.8c2.7,0,4.6-0.9,5.8-2.6s1.8-4.2,1.8-7.5c0-1-0.1-2-0.4-3c-0.2-1-0.7-1.9-1.4-2.7s-1.6-1.5-2.8-2s-2.7-0.7-4.6-0.7h-2.3
	v18.5H74.3z"/>
<path d="M96,114.3v7.7h10.2v2.7H96v11h-4.1v-24.5h15.3v3H96z"/>
<path d="M55.3,87.9L55.3,87.9c-0.8,0-1.7-0.3-2.3-0.8c-2.5-1.9-2.9-4-2.7-5.4c0.4-4,5.3-8.1,14.5-12.3c3.7-8,7.1-17.9,9.2-26.1
	c-2.4-5.3-4.8-12.1-3.1-16.1c0.6-1.4,1.4-2.5,2.8-3c0.6-0.2,2-0.4,2.5-0.4c1.2,0,2.3,1.6,3.1,2.5c0.7,0.9,2.3,2.8-0.9,16.5
	c3.3,6.8,7.9,13.6,12.4,18.4c3.2-0.6,5.9-0.9,8.2-0.9c3.8,0,6.1,0.9,7,2.7c0.8,1.5,0.5,3.3-0.9,5.2c-1.4,1.9-3.2,2.9-5.4,2.9
	c-3,0-6.4-1.9-10.2-5.5c-6.9,1.4-14.9,4-21.4,6.9c-2,4.3-4,7.8-5.8,10.3C59.5,86.3,57.4,87.9,55.3,87.9z M61.7,75.5
	c-5.2,2.9-7.3,5.3-7.5,6.7c0,0.2-0.1,0.8,1,1.7C55.7,83.7,57.8,82.7,61.7,75.5z M94.9,64.7c2,1.5,2.5,2.3,3.8,2.3
	c0.6,0,2.2,0,2.9-1.1c0.4-0.5,0.5-0.8,0.6-1c-0.3-0.2-0.7-0.5-2.9-0.5C98,64.4,96.5,64.5,94.9,64.7z M76.7,48.7
	c-1.7,6-4,12.5-6.5,18.4c5.1-2,10.6-3.7,15.8-4.9C82.7,58.4,79.4,53.6,76.7,48.7z M75.2,28.2C75,28.2,72,32.4,75.5,36
	C77.8,30.8,75.3,28.1,75.2,28.2z"/>
</svg>
