<?xml version="1.0" encoding="utf-8"?>
<svg version="1.1" id="Layer_1" x="0px" y="0px" viewBox="0 0 100 100" style="enable-background:new 0 0 100 100;" xmlns="http://www.w3.org/2000/svg">
  <style type="text/css">
	.st0{fill:none;stroke:#000000;stroke-width:2;stroke-linecap:round;stroke-miterlimit:10;}
	.st1{fill:none;stroke:#000000;stroke-width:2;stroke-miterlimit:10;}
</style>
  <g>
    <circle cx="61.7" cy="15.8" r="1.6" style="stroke: rgb(122, 160, 0);"/>
    <circle cx="61.7" cy="25.5" r="1.6" style="stroke: rgb(122, 160, 0);"/>
    <circle cx="66.5" cy="20.6" r="1.6" style="stroke: rgb(122, 160, 0);"/>
    <circle cx="66.5" cy="30.4" r="1.6" style="stroke: rgb(122, 160, 0);"/>
    <circle cx="56.8" cy="20.6" r="1.6" style="stroke: rgb(122, 160, 0);"/>
    <circle cx="56.8" cy="30.4" r="1.6" style="stroke: rgb(122, 160, 0);"/>
    <circle cx="61.7" cy="35.2" r="1.6" style="stroke: rgb(122, 160, 0);"/>
    <circle cx="61.7" cy="44.9" r="1.6" style="stroke: rgb(122, 160, 0);"/>
    <circle cx="66.5" cy="40.1" r="1.6" style="stroke: rgb(122, 160, 0);"/>
    <circle cx="66.5" cy="49.8" r="1.6" style="stroke: rgb(122, 160, 0);"/>
    <circle cx="56.8" cy="40.1" r="1.6" style="stroke: rgb(122, 160, 0);"/>
    <circle cx="56.8" cy="49.8" r="1.6" style="stroke: rgb(122, 160, 0);"/>
    <circle cx="61.7" cy="54.7" r="1.6" style="stroke: rgb(122, 160, 0);"/>
    <circle cx="61.7" cy="64.4" r="1.6" style="stroke: rgb(122, 160, 0);"/>
    <circle cx="66.5" cy="59.5" r="1.6" style="stroke: rgb(122, 160, 0);"/>
    <circle cx="66.5" cy="69.3" r="1.6" style="stroke: rgb(122, 160, 0);"/>
    <circle cx="56.8" cy="59.5" r="1.6" style="stroke: rgb(122, 160, 0);"/>
    <circle cx="56.8" cy="69.3" r="1.6" style="stroke: rgb(122, 160, 0);"/>
    <circle cx="61.7" cy="74.1" r="1.6" style="stroke: rgb(122, 160, 0);"/>
    <circle cx="61.7" cy="83.8" r="1.6" style="stroke: rgb(122, 160, 0);"/>
    <circle cx="66.5" cy="79" r="1.6" style="stroke: rgb(122, 160, 0);"/>
    <circle cx="56.8" cy="79" r="1.6" style="stroke: rgb(122, 160, 0);"/>
    <line class="st0" x1="97.3" y1="85.5" x2="3.3" y2="85.5" style="stroke: rgb(122, 160, 0);"/>
    <rect x="29.3" y="62.8" class="st0" width="16.2" height="22.7" style="stroke: rgb(122, 160, 0);"/>
    <rect x="4.9" y="48.2" class="st0" width="16.2" height="37.3" style="stroke: rgb(122, 160, 0);"/>
    <rect x="77.9" y="25.5" class="st0" width="16.2" height="60" style="stroke: rgb(122, 160, 0);"/>
    <rect x="53.6" y="12.5" class="st0" width="16.2" height="72.9" style="stroke: rgb(122, 160, 0);"/>
  </g>
</svg>