<?xml version="1.0" encoding="utf-8"?>
<!-- Generator: Adobe Illustrator 24.2.1, SVG Export Plug-In . SVG Version: 6.00 Build 0)  -->
<svg version="1.1" id="Layer_1" xmlns="http://www.w3.org/2000/svg" xmlns:xlink="http://www.w3.org/1999/xlink" x="0px" y="0px"
	 viewBox="0 0 150 150" style="enable-background:new 0 0 150 150;" xml:space="preserve">
<style type="text/css">
	.st0{fill:#666666;}
</style>
<g>
	<polygon class="st0" points="65.3,49 84.4,68.1 84.4,39 65.3,39 	"/>
	<polygon class="st0" points="62.6,76.9 54.3,68.7 43.5,68.7 43.5,108.7 62.6,108.7 	"/>
	<polygon class="st0" points="84.4,98.7 65.3,79.6 65.3,108.7 84.4,108.7 	"/>
	<polygon class="st0" points="87.1,70.8 106.1,89.8 106.1,66.1 87.1,66.1 	"/>
	<polygon class="st0" points="87.1,101.4 87.1,108.7 94.4,108.7 	"/>
	<path class="st0" d="M122.7,26C110.4,13.7,93.5,6.2,74.8,6.2C56.1,6.2,39.2,13.7,27,26C14.7,38.2,7.1,55.2,7.1,73.8
		c0,18.7,7.6,35.6,19.8,47.8c12.2,12.2,29.2,19.8,47.8,19.8h0c18.6,0,35.6-7.6,47.8-19.8c12.2-12.2,19.8-29.2,19.8-47.8
		C142.5,55.2,134.9,38.2,122.7,26z M74.8,126.4c-14.5,0-27.6-5.9-37.2-15.4c-9.5-9.5-15.4-22.6-15.4-37.2c0-11.7,3.8-22.5,10.2-31.2
		l73.5,73.5C97.3,122.6,86.5,126.4,74.8,126.4z M117.1,105L43.6,31.5c8.7-6.4,19.5-10.3,31.2-10.3c14.5,0,27.6,5.9,37.2,15.4
		c9.5,9.5,15.4,22.6,15.4,37.2C127.4,85.5,123.6,96.3,117.1,105z"/>
</g>
</svg>
