<?xml version="1.0" encoding="utf-8"?>
<!-- Generator: Adobe Illustrator 24.1.3, SVG Export Plug-In . SVG Version: 6.00 Build 0)  -->
<svg version="1.1" id="Layer_1" xmlns="http://www.w3.org/2000/svg" xmlns:xlink="http://www.w3.org/1999/xlink" x="0px" y="0px"
	 viewBox="0 0 150 150" style="enable-background:new 0 0 150 150;" xml:space="preserve">
<style type="text/css">
	.st0{fill:none;stroke:#608bb5;stroke-width:2;stroke-linecap:round;stroke-linejoin:round;stroke-miterlimit:10;}
	.st1{fill:none;stroke:#608bb5;stroke-width:10;stroke-linecap:round;stroke-miterlimit:10;}
	.st2{fill:none;stroke:#608bb5;stroke-width:6;stroke-linecap:round;stroke-miterlimit:10;}
	.st3{fill:#608bb5;stroke:#608bb5;stroke-width:2;stroke-linecap:round;stroke-miterlimit:10;}
</style>
<path class="st0" d="M160.5,0"/>
<polyline class="st1" points="77.9,139.6 20,120.4 20,8.5 134.7,8.5 134.7,120.4 77.9,139.6 "/>
<g fill="#608bb5">
	<circle cx="58" cy="64.2" r="1.8"/>
	<circle cx="65.1" cy="64.2" r="1.8"/>
	<circle cx="61.5" cy="60.7" r="1.8"/>
	<g>
		<circle cx="58" cy="29.1" r="1.8"/>
		<circle cx="65.1" cy="29.1" r="1.8"/>
		<circle cx="61.5" cy="32.6" r="1.8"/>
		<circle cx="58" cy="36.1" r="1.8"/>
		<circle cx="65.1" cy="36.1" r="1.8"/>
		<circle cx="61.5" cy="39.7" r="1.8"/>
		<circle cx="58" cy="43.2" r="1.8"/>
		<circle cx="65.1" cy="43.2" r="1.8"/>
		<circle cx="61.5" cy="46.7" r="1.8"/>
		<circle cx="58" cy="50.2" r="1.8"/>
		<circle cx="65.1" cy="50.2" r="1.8"/>
		<circle cx="61.5" cy="53.7" r="1.8"/>
		<circle cx="58" cy="57.2" r="1.8"/>
		<circle cx="65.1" cy="57.2" r="1.8"/>
		<rect x="45.7" y="37.9" class="st2" width="10.5" height="28.1"/>
		<rect x="56.3" y="27.4" class="st2" width="10.5" height="38.6"/>
		<rect x="66.8" y="44.9" class="st2" width="10.5" height="21.1"/>
		<rect x="77.3" y="34.4" class="st2" width="10.5" height="31.6"/>
		<rect x="87.9" y="22.1" class="st2" width="10.5" height="43.9"/>
		<rect x="98.4" y="27.4" class="st2" width="10.5" height="38.6"/>
	</g>
	<line class="st2" x1="38.7" y1="66" x2="116" y2="66"/>
</g>
<g class="st3">
	<path d="M47.1,112.3h-4.5V84.8h7.9c1.2,0,2.3,0.2,3.5,0.6c1.1,0.4,2.2,0.9,3.1,1.7c0.9,0.7,1.6,1.6,2.2,2.7s0.8,2.2,0.8,3.6
		c0,1.4-0.2,2.7-0.7,3.8c-0.5,1.1-1.1,2.1-2,2.9c-0.8,0.8-1.9,1.4-3.1,1.8c-1.2,0.4-2.5,0.6-4,0.6h-3.3V112.3z M47.1,88.2v10.9h4.1
		c0.5,0,1.1-0.1,1.6-0.3c0.5-0.2,1-0.5,1.5-0.9c0.4-0.4,0.8-1,1.1-1.8c0.3-0.8,0.4-1.7,0.4-2.8c0-0.4-0.1-1-0.2-1.5
		c-0.1-0.6-0.4-1.1-0.8-1.7c-0.4-0.5-0.9-1-1.6-1.3c-0.7-0.4-1.6-0.5-2.8-0.5H47.1z"/>
	<path d="M85.2,84.8v27.5h-4.6l-10.8-19v19h-4.6V84.8h4.6l10.8,19v-19H85.2z"/>
	<path d="M112,98.1v10.6c-0.6,0.7-1.2,1.3-1.9,1.8c-0.7,0.5-1.5,0.8-2.2,1.1c-0.8,0.3-1.6,0.5-2.4,0.6c-0.8,0.1-1.7,0.2-2.5,0.2
		c-1.6,0-3.2-0.3-4.5-0.9c-1.4-0.6-2.6-1.5-3.6-2.7c-1-1.2-1.8-2.6-2.4-4.4c-0.6-1.8-0.9-3.8-0.9-6.1c0-2.3,0.3-4.3,0.9-6.1
		c0.6-1.8,1.4-3.2,2.4-4.4c1-1.2,2.2-2.1,3.6-2.7c1.4-0.6,2.9-0.9,4.5-0.9c1.5,0,2.9,0.2,4.2,0.7c1.3,0.5,2.5,1.2,3.5,2.2l-3.1,2.8
		c-0.6-0.7-1.3-1.2-2.1-1.6c-0.8-0.3-1.6-0.5-2.4-0.5c-0.9,0-1.8,0.2-2.6,0.5c-0.8,0.3-1.6,0.9-2.2,1.8c-0.7,0.8-1.2,1.9-1.5,3.2
		s-0.6,2.9-0.6,4.9c0,1.9,0.2,3.5,0.6,4.9c0.4,1.4,0.9,2.5,1.5,3.4s1.4,1.5,2.2,1.9c0.8,0.4,1.7,0.6,2.6,0.6c0.3,0,0.6,0,1.1-0.1
		c0.5,0,0.9-0.1,1.4-0.2c0.5-0.1,0.9-0.2,1.3-0.4c0.4-0.1,0.7-0.4,0.9-0.6v-6.8h-4.7v-3.1H112z"/>
</g>
</svg>
