<?xml version="1.0" encoding="utf-8"?>
<svg version="1.1" id="Layer_1" x="0px" y="0px" viewBox="0 0 100 100" style="enable-background:new 0 0 100 100;" xmlns="http://www.w3.org/2000/svg">
  <style type="text/css">
	.st0{fill:none;stroke:#000000;stroke-width:2;stroke-linecap:round;stroke-miterlimit:10;}
	.st1{fill:none;stroke:#000000;stroke-width:2;stroke-miterlimit:10;}
</style>
  <g>
    <line class="st0" x1="5.6" y1="4" x2="5.6" y2="98" style="stroke: rgb(114, 167, 79);"/>
    <line class="st0" x1="2.3" y1="94.8" x2="96.3" y2="94.8" style="stroke: rgb(114, 167, 79);"/>
    <line class="st0" x1="12" y1="47.8" x2="15.3" y2="47.8" style="stroke: rgb(114, 167, 79);"/>
    <line class="st0" x1="12" y1="41.3" x2="15.3" y2="41.3" style="stroke: rgb(114, 167, 79);"/>
    <line class="st0" x1="12" y1="34.8" x2="15.3" y2="34.8" style="stroke: rgb(114, 167, 79);"/>
    <line class="st0" x1="12" y1="28.3" x2="15.3" y2="28.3" style="stroke: rgb(114, 167, 79);"/>
    <line class="st0" x1="12" y1="21.8" x2="15.3" y2="21.8" style="stroke: rgb(114, 167, 79);"/>
    <line class="st0" x1="12" y1="15.3" x2="15.3" y2="15.3" style="stroke: rgb(114, 167, 79);"/>
    <line class="st0" x1="12" y1="8.9" x2="15.3" y2="8.9" style="stroke: rgb(114, 167, 79);"/>
    <circle class="st0" cx="18.5" cy="72" r="8.1" style="stroke: rgb(114, 167, 79);"/>
    <circle class="st0" cx="38" cy="52.6" r="8.1" style="stroke: rgb(114, 167, 79);"/>
    <circle class="st0" cx="88.2" cy="47.8" r="8.1" style="stroke: rgb(114, 167, 79);"/>
    <circle class="st0" cx="59" cy="73.7" r="8.1" style="stroke: rgb(114, 167, 79);"/>
    <line class="st0" x1="31.5" y1="57.5" x2="23.4" y2="65.6" style="stroke: rgb(114, 167, 79);"/>
    <line class="st0" x1="54.2" y1="67.2" x2="44.4" y2="57.5" style="stroke: rgb(114, 167, 79);"/>
    <line class="st0" x1="65.5" y1="68.8" x2="81.7" y2="52.6" style="stroke: rgb(114, 167, 79);"/>
  </g>
</svg>