<?xml version="1.0" encoding="utf-8"?>
<!-- Generator: Adobe Illustrator 24.2.1, SVG Export Plug-In . SVG Version: 6.00 Build 0)  -->
<svg version="1.1" id="Layer_1" xmlns="http://www.w3.org/2000/svg" xmlns:xlink="http://www.w3.org/1999/xlink" x="0px" y="0px"
	 viewBox="0 0 150 150" style="enable-background:new 0 0 150 150;" xml:space="preserve">
<style type="text/css">
	.st0{fill:#4A4A4A;}
</style>
<path class="st0" d="M123,13H26.9c-2.9,0-5.2,2.3-5.2,5.2v82.2c0,2.9,2.3,5.2,5.2,5.2H123c2.9,0,5.2-2.3,5.2-5.2V18.2
	C128.2,15.3,125.9,13,123,13z M53.4,18.2c2,0,3.6,1.6,3.6,3.6s-1.6,3.6-3.6,3.6c-2,0-3.6-1.6-3.6-3.6S51.4,18.2,53.4,18.2z
	 M41.8,18.2c2,0,3.6,1.6,3.6,3.6s-1.6,3.6-3.6,3.6c-2,0-3.6-1.6-3.6-3.6S39.8,18.2,41.8,18.2z M26.6,21.8c0-2,1.6-3.6,3.6-3.6
	c2,0,3.6,1.6,3.6,3.6s-1.6,3.6-3.6,3.6C28.2,25.5,26.6,23.9,26.6,21.8z M122.7,99.7H27.3V29.3h95.4V99.7z"/>
<polygon class="st0" points="82.3,80.2 67.6,80.2 67.6,114.4 52.4,114.4 75,137 97.5,114.4 82.3,114.4 "/>
<rect x="39" y="73.7" class="st0" width="72" height="6.5"/>
<rect x="39" y="59.5" class="st0" width="72" height="6.5"/>
<rect x="39" y="45.3" class="st0" width="72" height="6.5"/>
</svg>
