<?xml version="1.0" encoding="utf-8"?>
<!-- Generator: Adobe Illustrator 24.2.3, SVG Export Plug-In . SVG Version: 6.00 Build 0)  -->
<svg version="1.1" id="Layer_1" xmlns="http://www.w3.org/2000/svg" xmlns:xlink="http://www.w3.org/1999/xlink" x="0px" y="0px"
	 viewBox="0 0 150 150" style="enable-background:new 0 0 150 150;" xml:space="preserve">
<style type="text/css">
	.st0{fill:#3C658E;}
</style>
<path class="st0" d="M74.7,5.8c-37.5,0-67.9,30.5-67.9,68s30.4,67.9,67.9,67.9s67.9-30.4,67.9-67.9C142.7,36.3,112.3,5.8,74.7,5.8z
	 M70.3,113.8c-6.3,0-9.3-2.8-9.3-8.5c0-5.5,3-8.5,9.3-8.5c6.1,0,9.2,2.9,9.2,8.5C79.6,110.8,76.5,113.8,70.3,113.8z M78.5,81.2v10
	H62.1V71.4c9.5-0.8,21.7-2.1,21.7-14.7c0-6.2-3.3-9.6-8.8-9.6c-3.2,0-5.4,0.5-7.3,1.3c-1.1,0.4-1.2,0.7-1.4,2.2l-1,7l-13.3,1v-20
	c7.4-2.8,15.2-4.8,23.7-4.8c14.5,0,26.3,4.9,26.3,22.4C102.1,70,94.1,79.3,78.5,81.2z"/>
</svg>
