<?xml version="1.0" encoding="utf-8"?>
<!-- Generator: Adobe Illustrator 24.0.0, SVG Export Plug-In . SVG Version: 6.00 Build 0)  -->
<svg version="1.1" id="Layer_1" xmlns="http://www.w3.org/2000/svg" xmlns:xlink="http://www.w3.org/1999/xlink" x="0px" y="0px"
	 viewBox="0 0 100 100" style="enable-background:new 0 0 100 100;" xml:space="preserve">
<style type="text/css">
	.st0{fill:none;stroke:#000000;stroke-width:2;stroke-linecap:round;stroke-miterlimit:10;}
	.st1{fill:none;stroke:#000000;stroke-width:2;stroke-miterlimit:10;}
</style>
<circle cx="84.9" cy="43.9" r="1.5"/>
<circle cx="89.4" cy="39.4" r="1.5"/>
<circle cx="89.4" cy="48.5" r="1.5"/>
<circle cx="84.9" cy="53" r="1.5"/>
<circle cx="75.8" cy="53" r="1.5"/>
<circle cx="66.7" cy="53" r="1.5"/>
<circle cx="71.2" cy="48.5" r="1.5"/>
<circle cx="43.9" cy="66.7" r="1.5"/>
<circle cx="84.9" cy="62.1" r="1.5"/>
<circle cx="89.4" cy="57.6" r="1.5"/>
<circle cx="89.4" cy="66.7" r="1.5"/>
<circle cx="75.8" cy="62.1" r="1.5"/>
<circle cx="80.3" cy="57.6" r="1.5"/>
<circle cx="80.3" cy="66.7" r="1.5"/>
<circle cx="53" cy="66.7" r="1.5"/>
<circle cx="57.6" cy="62.1" r="1.5"/>
<circle cx="66.7" cy="62.1" r="1.5"/>
<circle cx="39.4" cy="71.2" r="1.5"/>
<circle cx="48.5" cy="71.2" r="1.5"/>
<circle cx="21.2" cy="71.2" r="1.5"/>
<circle cx="84.9" cy="71.2" r="1.5"/>
<circle cx="75.8" cy="71.2" r="1.5"/>
<circle cx="57.6" cy="71.2" r="1.5"/>
<circle cx="66.7" cy="71.2" r="1.5"/>
<circle cx="62.1" cy="57.6" r="1.5"/>
<circle cx="71.2" cy="57.6" r="1.5"/>
<circle cx="62.1" cy="66.7" r="1.5"/>
<circle cx="71.2" cy="66.7" r="1.5"/>
<circle cx="39.4" cy="80.3" r="1.5"/>
<circle cx="43.9" cy="75.8" r="1.5"/>
<circle cx="43.9" cy="84.9" r="1.5"/>
<circle cx="48.5" cy="80.3" r="1.5"/>
<circle cx="30.3" cy="80.3" r="1.5"/>
<circle cx="34.8" cy="75.8" r="1.5"/>
<circle cx="34.8" cy="84.9" r="1.5"/>
<circle cx="12.1" cy="80.3" r="1.5"/>
<circle cx="21.2" cy="80.3" r="1.5"/>
<circle cx="16.6" cy="75.8" r="1.5"/>
<circle cx="25.7" cy="75.8" r="1.5"/>
<circle cx="16.6" cy="84.9" r="1.5"/>
<circle cx="25.7" cy="84.9" r="1.5"/>
<circle cx="84.9" cy="80.3" r="1.5"/>
<circle cx="89.4" cy="75.8" r="1.5"/>
<circle cx="89.4" cy="84.9" r="1.5"/>
<circle cx="75.8" cy="80.3" r="1.5"/>
<circle cx="80.3" cy="75.8" r="1.5"/>
<circle cx="80.3" cy="84.9" r="1.5"/>
<circle cx="53" cy="75.8" r="1.5"/>
<circle cx="53" cy="84.9" r="1.5"/>
<circle cx="57.6" cy="80.3" r="1.5"/>
<circle cx="66.7" cy="80.3" r="1.5"/>
<circle cx="39.4" cy="89.4" r="1.5"/>
<circle cx="48.5" cy="89.4" r="1.5"/>
<circle cx="30.3" cy="89.4" r="1.5"/>
<circle cx="12.1" cy="89.4" r="1.5"/>
<circle cx="21.2" cy="89.4" r="1.5"/>
<circle cx="84.9" cy="89.4" r="1.5"/>
<circle cx="75.8" cy="89.4" r="1.5"/>
<circle cx="57.6" cy="89.4" r="1.5"/>
<circle cx="66.7" cy="89.4" r="1.5"/>
<circle cx="62.1" cy="75.8" r="1.5"/>
<circle cx="71.2" cy="75.8" r="1.5"/>
<circle cx="62.1" cy="84.9" r="1.5"/>
<circle cx="71.2" cy="84.9" r="1.5"/>
<line class="st0" x1="9" y1="6" x2="9" y2="94"/>
<line class="st0" x1="94" y1="91" x2="6" y2="91"/>
<line class="st0" x1="15.1" y1="47" x2="18.1" y2="47"/>
<line class="st0" x1="15.1" y1="40.9" x2="18.1" y2="40.9"/>
<line class="st0" x1="15.1" y1="34.8" x2="18.1" y2="34.8"/>
<line class="st0" x1="15.1" y1="28.8" x2="18.1" y2="28.8"/>
<line class="st0" x1="15.1" y1="22.7" x2="18.1" y2="22.7"/>
<line class="st0" x1="15.1" y1="16.6" x2="18.1" y2="16.6"/>
<line class="st0" x1="15.1" y1="10.6" x2="18.1" y2="10.6"/>
<polygon class="st0" points="9,77.3 22.7,63.7 31.8,75.8 42.4,53 51.5,65.2 68.2,39.4 77.3,51.5 94,25.7 94,91 9,91 "/>
</svg>
