<?xml version="1.0" encoding="utf-8"?>
<!-- Generator: Adobe Illustrator 24.0.0, SVG Export Plug-In . SVG Version: 6.00 Build 0)  -->
<svg version="1.1" id="Layer_1" xmlns="http://www.w3.org/2000/svg" xmlns:xlink="http://www.w3.org/1999/xlink" x="0px" y="0px"
	 viewBox="0 0 100 100" style="enable-background:new 0 0 100 100;" xml:space="preserve">
<style type="text/css">
	.st0{fill:none;stroke:#000000;stroke-width:2;stroke-linecap:round;stroke-miterlimit:10;}
	.st1{fill:none;stroke:#000000;stroke-width:2;stroke-miterlimit:10;}
</style>
<g>
	<line class="st0" x1="5.6" y1="3" x2="5.6" y2="97"/>
	<line class="st0" x1="2.3" y1="93.8" x2="96.3" y2="93.8"/>
	<circle cx="41.2" cy="24.1" r="1.6"/>
	<circle cx="41.2" cy="33.8" r="1.6"/>
	<circle cx="36.4" cy="28.9" r="1.6"/>
	<circle cx="36.4" cy="38.7" r="1.6"/>
	<circle cx="46.1" cy="28.9" r="1.6"/>
	<circle cx="46.1" cy="38.7" r="1.6"/>
	<circle cx="41.2" cy="43.5" r="1.6"/>
	<circle cx="41.2" cy="53.2" r="1.6"/>
	<circle cx="36.4" cy="48.4" r="1.6"/>
	<circle cx="36.4" cy="58.1" r="1.6"/>
	<circle cx="46.1" cy="48.4" r="1.6"/>
	<circle cx="46.1" cy="58.1" r="1.6"/>
	<circle cx="41.2" cy="63" r="1.6"/>
	<circle cx="41.2" cy="72.7" r="1.6"/>
	<circle cx="36.4" cy="67.8" r="1.6"/>
	<circle cx="36.4" cy="77.6" r="1.6"/>
	<circle cx="46.1" cy="67.8" r="1.6"/>
	<circle cx="46.1" cy="77.6" r="1.6"/>
	<circle cx="41.2" cy="82.4" r="1.6"/>
	<circle cx="41.2" cy="92.1" r="1.6"/>
	<circle cx="36.4" cy="87.3" r="1.6"/>
	<circle cx="46.1" cy="87.3" r="1.6"/>
	
		<rect x="54.2" y="71.1" transform="matrix(-1 -4.500634e-11 4.500634e-11 -1 124.5766 164.8276)" class="st0" width="16.2" height="22.7"/>
	
		<rect x="75.3" y="56.5" transform="matrix(-1 -4.489443e-11 4.489443e-11 -1 166.7145 150.2414)" class="st0" width="16.2" height="37.3"/>
	<rect x="12" y="33.8" class="st0" width="16.2" height="60"/>
	
		<rect x="33.1" y="20.8" transform="matrix(-1 -4.523105e-11 4.523105e-11 -1 82.4386 114.5862)" class="st0" width="16.2" height="72.9"/>
</g>
</svg>
