<?xml version="1.0" encoding="utf-8"?>
<!-- Generator: Adobe Illustrator 24.0.0, SVG Export Plug-In . SVG Version: 6.00 Build 0)  -->
<svg version="1.1" id="Layer_1" xmlns="http://www.w3.org/2000/svg" xmlns:xlink="http://www.w3.org/1999/xlink" x="0px" y="0px"
	 viewBox="0 0 100 100" style="enable-background:new 0 0 100 100;" xml:space="preserve">
<style type="text/css">
	.st0{fill:none;stroke:#000000;stroke-width:2;stroke-linecap:round;stroke-miterlimit:10;}
	.st1{fill:none;stroke:#000000;stroke-width:2;stroke-miterlimit:10;}
	.st2{fill:none;stroke:#231F20;stroke-width:2;stroke-linecap:round;stroke-miterlimit:10;}
</style>
<path class="st2" d="M73.2,47c0-6.1,4.9-11,11-11c6.1,0,11,4.9,11,11"/>
<line class="st0" x1="54.4" y1="79.9" x2="49.7" y2="84.6"/>
<line class="st0" x1="45" y1="89.3" x2="40.3" y2="94"/>
<line class="st0" x1="76.4" y1="70.5" x2="71.7" y2="75.2"/>
<line class="st0" x1="67" y1="79.9" x2="62.3" y2="84.6"/>
<line class="st0" x1="51.3" y1="70.5" x2="46.6" y2="75.2"/>
<line class="st0" x1="63.8" y1="70.5" x2="59.1" y2="75.2"/>
<line class="st0" x1="41.9" y1="79.9" x2="37.2" y2="84.6"/>
<path class="st2" d="M39.4,50.1c-1.4-5.9,2.3-11.8,8.2-13.2s11.8,2.3,13.2,8.2"/>
<path class="st2" d="M29.5,62.4c-4.7-3.8-5.3-10.8-1.5-15.4c2.9-3.6,7.6-4.8,11.8-3.5"/>
<path class="st2" d="M12.3,86.2C4.6,81.5,2.1,71.3,6.8,63.6c4-6.6,12-9.4,19.1-7.1"/>
<path class="st2" d="M51.3,36c0-9.1,7.4-16.4,16.4-16.4S84.2,26.9,84.2,36"/>
<line class="st0" x1="4.1" y1="38.3" x2="10.5" y2="38.3"/>
<line class="st0" x1="35.4" y1="7" x2="35.4" y2="13.5"/>
<line class="st0" x1="11.6" y1="14.6" x2="17.8" y2="20.8"/>
<line class="st0" x1="59.1" y1="14.6" x2="52.9" y2="20.8"/>
<line class="st0" x1="24.4" y1="12.5" x2="25.7" y2="15.5"/>
<line class="st0" x1="45.9" y1="12.3" x2="44.7" y2="15.3"/>
<line class="st0" x1="12.5" y1="48" x2="9.5" y2="49.3"/>
<line class="st0" x1="12.4" y1="29" x2="9.3" y2="27.8"/>
<path class="st1" d="M22.6,55.6c1.1,0.1,2.2,0.3,3.3,0.7c-0.7-3.2,0-6.6,2.2-9.3c2.9-3.6,7.6-4.8,11.8-3.5l0,0
	c1.3-3.2,4-5.8,7.7-6.6c1.3-0.3,2.6-0.4,3.8-0.2c0-0.2,0-0.5,0-0.7c0-3.2,0.9-6.2,2.6-8.8c-3.8-6.3-10.6-10.5-18.5-10.5
	c-11.9,0-21.6,9.7-21.6,21.6C13.8,45.4,17.2,51.7,22.6,55.6z"/>
</svg>
