<?xml version="1.0" encoding="utf-8"?>
<!-- Generator: Adobe Illustrator 24.0.0, SVG Export Plug-In . SVG Version: 6.00 Build 0)  -->
<svg version="1.1" id="Layer_1" xmlns="http://www.w3.org/2000/svg" xmlns:xlink="http://www.w3.org/1999/xlink" x="0px" y="0px"
	 viewBox="0 0 100 100" style="enable-background:new 0 0 100 100;" xml:space="preserve">
<style type="text/css">
	.st0{fill:none;stroke:#000000;stroke-width:2;stroke-linecap:round;stroke-miterlimit:10;}
	.st1{fill:none;stroke:#000000;stroke-width:2;stroke-miterlimit:10;}
</style>
<g>
	<path class="st1" d="M53.6,47.8h43.6c-1.6-23.4-20.3-42-43.6-43.6V47.8z"/>
	<path class="st1" d="M84.9,82.8c7-7.6,11.6-17.6,12.3-28.6h-41L84.9,82.8z"/>
	<path class="st1" d="M47.1,54.2V4.1C22.6,5.8,3.3,26.1,3.3,51c0,26,21,47,47,47c11.3,0,21.7-4,29.8-10.7L47.1,54.2z"/>
	<circle cx="58.4" cy="8.9" r="1.6"/>
	<circle cx="58.4" cy="18.6" r="1.6"/>
	<circle cx="63.3" cy="13.7" r="1.6"/>
	<circle cx="73" cy="13.7" r="1.6"/>
	<circle cx="68.2" cy="8.9" r="1.6"/>
	<circle cx="68.2" cy="18.6" r="1.6"/>
	<circle cx="77.9" cy="18.6" r="1.6"/>
	<circle cx="82.7" cy="23.4" r="1.6"/>
	<circle cx="63.3" cy="23.4" r="1.6"/>
	<circle cx="73" cy="23.4" r="1.6"/>
	<circle cx="92.5" cy="33.2" r="1.6"/>
	<circle cx="82.7" cy="33.2" r="1.6"/>
	<circle cx="87.6" cy="28.3" r="1.6"/>
	<circle cx="87.6" cy="38" r="1.6"/>
	<circle cx="58.4" cy="28.3" r="1.6"/>
	<circle cx="58.4" cy="38" r="1.6"/>
	<circle cx="63.3" cy="33.2" r="1.6"/>
	<circle cx="73" cy="33.2" r="1.6"/>
	<circle cx="68.2" cy="28.3" r="1.6"/>
	<circle cx="77.9" cy="28.3" r="1.6"/>
	<circle cx="68.2" cy="38" r="1.6"/>
	<circle cx="77.9" cy="38" r="1.6"/>
	<circle cx="92.5" cy="42.9" r="1.6"/>
	<circle cx="82.7" cy="42.9" r="1.6"/>
	<circle cx="63.3" cy="42.9" r="1.6"/>
	<circle cx="73" cy="42.9" r="1.6"/>
	<circle cx="82.7" cy="76.9" r="1.6"/>
	<circle cx="73" cy="67.2" r="1.6"/>
	<circle cx="68.2" cy="62.3" r="1.6"/>
	<circle cx="92.5" cy="67.2" r="1.6"/>
	<circle cx="82.7" cy="67.2" r="1.6"/>
	<circle cx="87.6" cy="72.1" r="1.6"/>
	<circle cx="77.9" cy="72.1" r="1.6"/>
	<circle cx="87.6" cy="62.3" r="1.6"/>
	<circle cx="77.9" cy="62.3" r="1.6"/>
	<circle cx="63.3" cy="57.5" r="1.6"/>
	<circle cx="73" cy="57.5" r="1.6"/>
	<circle cx="92.5" cy="57.5" r="1.6"/>
	<circle cx="82.7" cy="57.5" r="1.6"/>
</g>
</svg>
