<?xml version="1.0" encoding="utf-8"?>
<!-- Generator: Adobe Illustrator 24.0.0, SVG Export Plug-In . SVG Version: 6.00 Build 0)  -->
<svg version="1.1" id="Layer_1" xmlns="http://www.w3.org/2000/svg" xmlns:xlink="http://www.w3.org/1999/xlink" x="0px" y="0px"
	 viewBox="0 0 150 150" style="enable-background:new 0 0 150 150;" xml:space="preserve">
<style type="text/css">
	.st0{fill:none;stroke:#FFFFFF;stroke-width:2;stroke-miterlimit:10;}
</style>
<circle cx="75" cy="74.4" r="67.9"/>
<g>
	<path class="st0" d="M100.9,48.4l-3,0.8c-3.5,0.5-6.3,3.3-6.8,6.8l-0.8,3l3-0.8c3.5-0.5,6.3-3.3,6.8-6.8L100.9,48.4z"/>
	<path class="st0" d="M83.5,44.1L82,46.8c-2.1,2.9-2.1,6.8,0,9.7l1.5,2.7l1.5-2.7c2.1-2.9,2.1-6.8,0-9.7L83.5,44.1z"/>
	<path class="st0" d="M105.2,65.7l-2.7-1.5c-2.9-2.1-6.8-2.1-9.7,0l-2.7,1.5l2.7,1.5c2.9,2.1,6.8,2.1,9.7,0L105.2,65.7z"/>
	<path class="st0" d="M73.7,53.9l-1.5,2.7c-2.1,2.9-2.1,6.8,0,9.7l1.5,2.7l1.5-2.7c2.1-2.9,2.1-6.8,0-9.7L73.7,53.9z"/>
	<path class="st0" d="M95.3,75.5L92.6,74c-2.9-2.1-6.8-2.1-9.7,0l-2.7,1.5l2.7,1.5c2.9,2.1,6.8,2.1,9.7,0L95.3,75.5z"/>
	<path class="st0" d="M63.9,63.7l-1.5,2.7c-2.1,2.9-2.1,6.8,0,9.7l1.5,2.7l1.5-2.7c2.1-2.9,2.1-6.8,0-9.7L63.9,63.7z"/>
	<path class="st0" d="M85.5,85.3l-2.7-1.5c-2.9-2.1-6.8-2.1-9.7,0l-2.7,1.5l2.7,1.5c2.9,2.1,6.8,2.1,9.7,0L85.5,85.3z"/>
	<path class="st0" d="M54.1,73.5l-1.5,2.7c-2.1,2.9-2.1,6.8,0,9.7l1.5,2.7l1.5-2.7c2.1-2.9,2.1-6.8,0-9.7L54.1,73.5z"/>
	<path class="st0" d="M75.7,95.1L73,93.6c-2.9-2.1-6.8-2.1-9.7,0l-2.7,1.5l2.7,1.5c2.9,2.1,6.8,2.1,9.7,0L75.7,95.1z"/>
	<path class="st0" d="M44.2,83.3L42.7,86c-2.1,2.9-2.1,6.8,0,9.7l1.5,2.7l1.5-2.7c2.1-2.9,2.1-6.8,0-9.7L44.2,83.3z"/>
	<path class="st0" d="M65.9,105l-2.7-1.5c-2.9-2.1-6.8-2.1-9.7,0l-2.7,1.5l2.7,1.5c2.9,2.1,6.8,2.1,9.7,0L65.9,105z"/>
	<line class="st0" x1="90" y1="59.2" x2="34.9" y2="114.3"/>
	<line class="st0" x1="89" y1="43.2" x2="97.8" y2="34.5"/>
	<line class="st0" x1="95.6" y1="45.4" x2="106.5" y2="34.5"/>
	<line class="st0" x1="104.3" y1="54.1" x2="115.2" y2="43.2"/>
	<line class="st0" x1="105.4" y1="44.3" x2="115.2" y2="34.5"/>
	<line class="st0" x1="106.5" y1="60.7" x2="115.2" y2="51.9"/>
</g>
</svg>
