<?xml version="1.0" encoding="utf-8"?>
<!-- Generator: Adobe Illustrator 24.0.3, SVG Export Plug-In . SVG Version: 6.00 Build 0)  -->
<svg version="1.1" id="Layer_1" xmlns="http://www.w3.org/2000/svg" xmlns:xlink="http://www.w3.org/1999/xlink" x="0px" y="0px"
	 viewBox="0 0 100 100" style="enable-background:new 0 0 100 100;" xml:space="preserve">
<style type="text/css">
	.st0{fill:none;stroke:#76ba73;stroke-width:2;stroke-linecap:round;stroke-linejoin:round;stroke-miterlimit:10;}
	.st1{fill:none;stroke:#76ba73;stroke-width:2;stroke-linecap:round;stroke-miterlimit:10;}
</style>
<g>
	<path class="st0" d="M68.6,90.5H32.3l0,0c0-3.3,2.7-6,6-6h24.2C65.9,84.4,68.6,87.2,68.6,90.5L68.6,90.5z"/>
	<polygon class="st0" points="61.1,84.4 39.9,84.4 42.9,72.4 58,72.4 	"/>
	<path class="st0" d="M94.3,60.3H6.6V14.1c0-2.9,2.4-5.3,5.3-5.3H89c2.9,0,5.3,2.4,5.3,5.3V60.3z"/>
	<path class="st0" d="M89,72.4H11.9c-2.9,0-5.3-2.4-5.3-5.3v-6.8h87.7v6.8C94.3,70,91.9,72.4,89,72.4z"/>
	<line class="st1" x1="33.8" y1="51.2" x2="51.4" y2="32.1"/>
	<line class="st1" x1="51.4" y1="32.1" x2="65" y2="45.7"/>
	<line class="st1" x1="65" y1="45.7" x2="86.8" y2="24"/>
	<line class="st1" x1="86.8" y1="24" x2="86.8" y2="34.6"/>
	<line class="st1" x1="86.8" y1="24" x2="76.2" y2="24"/>
	<line class="st0" x1="14.2" y1="19.4" x2="14.2" y2="52.7"/>
	<line class="st0" x1="20.2" y1="20.9" x2="23.3" y2="20.9"/>
	<line class="st0" x1="20.2" y1="27" x2="26.3" y2="27"/>
	<line class="st0" x1="20.2" y1="33" x2="23.3" y2="33"/>
	<line class="st0" x1="20.2" y1="39.1" x2="26.3" y2="39.1"/>
	<line class="st0" x1="20.2" y1="45.1" x2="23.3" y2="45.1"/>
	<line class="st0" x1="20.2" y1="51.2" x2="26.3" y2="51.2"/>
</g>
</svg>
