<?xml version="1.0" encoding="utf-8"?>
<!-- Generator: Adobe Illustrator 24.1.3, SVG Export Plug-In . SVG Version: 6.00 Build 0)  -->
<svg version="1.1" id="Layer_1" xmlns="http://www.w3.org/2000/svg" xmlns:xlink="http://www.w3.org/1999/xlink" x="0px" y="0px"
	 viewBox="0 0 150 150" style="enable-background:new 0 0 150 150;" xml:space="preserve">
<style type="text/css">
	.st0{fill:#4A4A4A;}
</style>
<path class="st0" d="M75.7,7C37.8,7,7,37.8,7,75.7c0,37.9,30.7,68.6,68.6,68.6c37.9,0,68.6-30.7,68.6-68.6
	C144.3,37.8,113.6,7,75.7,7z M73.4,35.5c6.3,0,11.5,5.1,11.5,11.5s-5.1,11.5-11.5,11.5c-6.3,0-11.5-5.1-11.5-11.5S67,35.5,73.4,35.5
	z M94.7,115.9H76.4H75H56.6v-4.2c0,0,0,0,9.5,0c2.5,0,1.9-6.4,1.9-6.4c0-0.9,0-5.5,0-24.2c0.3-12.2-10.6-12-10.6-12v-4.7H75h1.4h7
	v16.7c0,12.5,0,18.7,0,21.7c0,1.5,0,2.2,0,2.5c0,0-0.6,6.4,1.9,6.4c9.5,0,9.5,0,9.5,0V115.9z"/>
</svg>
