<?xml version="1.0" encoding="utf-8"?>
<!-- Generator: Adobe Illustrator 24.1.2, SVG Export Plug-In . SVG Version: 6.00 Build 0)  -->
<svg version="1.1" id="Layer_1" xmlns="http://www.w3.org/2000/svg" xmlns:xlink="http://www.w3.org/1999/xlink" x="0px" y="0px"
	 viewBox="0 0 150 150" style="enable-background:new 0 0 150 150;" xml:space="preserve">
<style type="text/css">
	.st0{fill:#4A4A4A;}
</style>
<g>
	<path class="st0" d="M71.8,50.6c-7.1,5.4-10.4,11.8-11,13.5c-3,10.1,6.1,12.1,6.1,12.1s0.6,0.2,1.4,0.2c9.4-0.1,9-8.2,8.6-10.4
		C75,58.7,71.8,50.6,71.8,50.6z"/>
	<path class="st0" d="M75.5,7C37.7,7,7,37.7,7,75.5S37.7,144,75.5,144S144,113.3,144,75.5S113.3,7,75.5,7z M78.5,112
		c-2.2,0.2-4.1,0-4.1,0S47,110.5,50.9,79.7c1-5.4,7.6-25.4,25.7-44.5c0,0,13.1,22,21.9,42.6C100.8,83.9,105.9,107.4,78.5,112z"/>
</g>
</svg>
