<?xml version="1.0" encoding="utf-8"?>
<!-- Generator: Adobe Illustrator 24.0.3, SVG Export Plug-In . SVG Version: 6.00 Build 0)  -->
<svg version="1.1" id="Layer_1" xmlns="http://www.w3.org/2000/svg" xmlns:xlink="http://www.w3.org/1999/xlink" x="0px" y="0px"
	 viewBox="0 0 100 100" style="enable-background:new 0 0 100 100;" xml:space="preserve">
<style type="text/css">
	.st0{fill:none;stroke:#76ba73;stroke-width:2;stroke-miterlimit:10;}
	.st1{fill:none;stroke:#76ba73;stroke-width:2;stroke-linecap:round;stroke-miterlimit:10;}
</style>
<g>
	<g>
		<circle class="st0" cx="51.2" cy="65.5" r="15.1"/>
		<line class="st0" x1="51.2" y1="80.7" x2="51.2" y2="50.4"/>
		<path class="st0" d="M51.2,50.4c-0.1,0-0.2,0-0.3,0c-4.4,3.6-7.2,9-7.2,15.1s2.8,11.5,7.2,15.1c0.1,0,0.2,0,0.3,0"/>
		<path class="st0" d="M40.3,55.1c3.1,2.1,6.9,3.4,11,3.4s7.8-1.3,11-3.4"/>
		<path class="st0" d="M62.5,75.6c-3.2-2.3-7.1-3.6-11.3-3.6s-8.1,1.3-11.3,3.6"/>
		<path class="st0" d="M51.2,80.7c0.1,0,0.2,0,0.3,0c4.4-3.6,7.2-9,7.2-15.1s-2.8-11.5-7.2-15.1c-0.1,0-0.2,0-0.3,0"/>
		<line class="st0" x1="36.1" y1="65.5" x2="66.3" y2="65.5"/>
	</g>
	<polygon class="st0" points="44.4,28.5 36.9,17.9 6.6,17.9 6.6,28.5 6.6,93.5 94.3,93.5 94.3,28.5 	"/>
	<line class="st1" x1="36.9" y1="17.9" x2="52" y2="39"/>
	<line class="st0" x1="52" y1="39.1" x2="94.3" y2="39.1"/>
	<line class="st1" x1="8.1" y1="93.5" x2="92.8" y2="93.5"/>
	<polygon class="st0" points="94.3,22.5 49,22.5 41.4,11.9 11.2,11.9 11.2,17.9 36.9,17.9 44.4,28.5 94.3,28.5 	"/>
	<polygon class="st0" points="94.3,16.4 53.5,16.4 45.9,5.8 15.7,5.8 15.7,11.9 41.4,11.9 49,22.5 94.3,22.5 	"/>
</g>
</svg>
