<?xml version="1.0" encoding="utf-8"?>
<!-- Generator: Adobe Illustrator 24.0.3, SVG Export Plug-In . SVG Version: 6.00 Build 0)  -->
<svg version="1.1" id="Layer_1" xmlns="http://www.w3.org/2000/svg" xmlns:xlink="http://www.w3.org/1999/xlink" x="0px" y="0px"
	 viewBox="0 0 100 100" style="enable-background:new 0 0 100 100;" xml:space="preserve">
<style type="text/css">
	.st0{fill:none;stroke:#231E20;stroke-width:2;stroke-miterlimit:10;}
	.st1{fill:none;stroke:#231E20;stroke-width:2;stroke-linecap:round;stroke-miterlimit:10;}
	.st2{fill:none;stroke:#010101;stroke-width:2;stroke-linecap:round;stroke-miterlimit:10;}
	.st3{fill:#010101;}
	.st4{fill:none;stroke:#231F20;stroke-width:2;stroke-miterlimit:10;}
</style>
<g>
	<circle class="st0" cx="72.6" cy="72.2" r="14.8"/>
	<line class="st1" x1="82.5" y1="83.2" x2="92.6" y2="93.6"/>
	<circle class="st2" cx="21" cy="20.1" r="5.3"/>
	<circle class="st3" cx="80.7" cy="17.8" r="1.5"/>
	<circle class="st3" cx="74.7" cy="17.8" r="1.5"/>
	<circle class="st3" cx="83.7" cy="22.3" r="1.5"/>
	<circle class="st3" cx="77.7" cy="22.3" r="1.5"/>
	<circle class="st3" cx="68.6" cy="17.8" r="1.5"/>
	<circle class="st3" cx="71.6" cy="22.3" r="1.5"/>
	<circle class="st3" cx="62.6" cy="17.8" r="1.5"/>
	<circle class="st3" cx="65.6" cy="22.3" r="1.5"/>
	<circle class="st3" cx="56.5" cy="17.8" r="1.5"/>
	<circle class="st3" cx="59.5" cy="22.3" r="1.5"/>
	<path class="st4" d="M88.9,34.4H12.1c-3,0-5.5-2.4-5.5-5.5V11.2c0-3,2.4-5.5,5.5-5.5h76.8c3,0,5.5,2.4,5.5,5.5V29
		C94.3,32,91.9,34.4,88.9,34.4z"/>
	<circle class="st2" cx="21" cy="48.8" r="5.3"/>
	<circle class="st3" cx="80.7" cy="46.5" r="1.5"/>
	<circle class="st3" cx="74.7" cy="46.5" r="1.5"/>
	<circle class="st3" cx="83.7" cy="51.1" r="1.5"/>
	<circle class="st3" cx="77.7" cy="51.1" r="1.5"/>
	<circle class="st3" cx="68.6" cy="46.5" r="1.5"/>
	<circle class="st3" cx="71.6" cy="51.1" r="1.5"/>
	<circle class="st3" cx="62.6" cy="46.5" r="1.5"/>
	<circle class="st3" cx="65.6" cy="51.1" r="1.5"/>
	<circle class="st3" cx="56.5" cy="46.5" r="1.5"/>
	<circle class="st3" cx="59.5" cy="51.1" r="1.5"/>
	<circle class="st2" cx="21" cy="77.5" r="5.3"/>
	<path class="st4" d="M47.4,63.2H12.1c-3,0-5.5,2.4-5.5,5.5v17.8c0,3,2.4,5.5,5.5,5.5h50.5"/>
	<path class="st4" d="M94.3,61.6V39.9c0-3-2.4-5.5-5.5-5.5H12.1c-3,0-5.5,2.4-5.5,5.5v17.8c0,3,2.4,5.5,5.5,5.5h35.4"/>
</g>
</svg>
