<?xml version="1.0" encoding="utf-8"?>
<!-- Generator: Adobe Illustrator 24.0.3, SVG Export Plug-In . SVG Version: 6.00 Build 0)  -->
<svg version="1.1" id="Layer_1" xmlns="http://www.w3.org/2000/svg" xmlns:xlink="http://www.w3.org/1999/xlink" x="0px" y="0px"
	 viewBox="0 0 100 100" style="enable-background:new 0 0 100 100;" xml:space="preserve">
<style type="text/css">
	.st0{fill:none;stroke:#76ba73;stroke-width:2.0994;stroke-miterlimit:10;}
	.st1{fill:none;stroke:#76ba73;stroke-width:2.0994;stroke-linecap:round;stroke-miterlimit:10;}
	.st2{fill:none;stroke:#76ba73;stroke-width:1.9033;stroke-linecap:round;stroke-miterlimit:10;}
</style>
<g>
	<circle class="st0" cx="49.9" cy="34" r="8.1"/>
	<path class="st0" d="M49.9,79.7L30.4,51.4c-7.3-9.7-6.3-25.9,2.3-34.5l0,0c9.5-9.5,25-9.5,34.6,0l0,0c8.6,8.6,9.6,24.8,2.3,34.5
		L49.9,79.7z"/>
	<path class="st1" d="M33.8,67.6c-13.5,1.6-22.9,6-22.9,10.1c0,5.6,17.5,10.1,39,10.1s39-4.5,39-10.1c0-4.1-9.4-8.5-22.9-10.1"/>
	<path class="st2" d="M26.5,66.3C9.9,68.2,2,73.4,2,78.4c0,6.8,21.4,12.4,47.9,12.4s47.9-5.5,47.9-12.4c0-5-8-10.2-24.6-12.1"/>
</g>
</svg>
