<?xml version="1.0" encoding="utf-8"?>
<!-- Generator: Adobe Illustrator 24.1.2, SVG Export Plug-In . SVG Version: 6.00 Build 0)  -->
<svg version="1.1" id="Layer_1" xmlns="http://www.w3.org/2000/svg" xmlns:xlink="http://www.w3.org/1999/xlink" x="0px" y="0px"
	 viewBox="0 0 150 150" style="enable-background:new 0 0 150 150;" xml:space="preserve">
<style type="text/css">
	.st0{fill-rule:evenodd;clip-rule:evenodd;fill:#4A4A4A;}
</style>
<path class="st0" d="M75.4,7c37.8,0,68.5,30.7,68.5,68.5c0,37.8-30.7,68.5-68.5,68.5c-37.8,0-68.5-30.7-68.5-68.5
	C6.8,37.7,37.5,7,75.4,7L75.4,7z M84.2,59.8c0.5,4,1,8.1,1.6,12.1C86,73.5,86.2,74,88,74c5.5,0,11.1,0,16.6,0c1.9,0,2.3-0.1,2.6-2.2
	c0.5-4,1-8.1,1.6-12.2c0.2-1.7,0.4-2,1.5-1.3c3.5,2.3,5.6,0.7,2.8-2.9c-0.8-1.1-0.8-1.5,0.4-3.3c2.1-3.3,2-7,0.7-10
	c-0.5-1.1-0.6-1.1-1.2,0.2c-1.3,2.9-3.3,4.9-5.6,6.2c-1.5,0.9-3.1,1.2-5.9,1.2c-3.4,0-6.8,0-10.2,0c-2.4,0-3.9-0.3-5.1-0.9
	c-2.4-1.2-4.4-3.1-5.8-5.9c-1-1.9-1-1.9-1.6-0.4c-1.2,3.1-1.1,7,1.3,10.3c0.8,1.1,0.8,1.4,0,2.4c-2.8,3.6-1.1,5.2,2.1,3.4
	C83.7,57.9,84,58.2,84.2,59.8L84.2,59.8z M51.1,56.8c9,0,14.4,0,23.4,0c1.9,0,1.9,0.1,2,1.7c0.1,2.1,1.9,3.3,3.9,3.1
	c1.7-0.2,2-0.2,2.2,1.4c0.8,6.5,1.7,12.9,2.5,19.4c0.4,3,1.2,4.6,4.6,4.6c3.9,0,7.9,0,11.8,0c1.2,0,1.5,0.5,1.5,2c0,1.3,0,2.5,0,3.8
	c0,5.1,0,10.1,0,15.2c0,0.9-0.8,1.7-1.7,1.7c-0.5,0-1-0.7-1.4-0.7c-0.6,0-1.3,0.7-1.9,0.7c-0.9,0-1.7-0.8-1.7-1.7c0-2.7,0-5.3,0-8
	c0-1.7-0.1-1.9-1.5-1.9c-0.5,0-1,0-1.6,0c-1.4,0-1.6,0.4-1.6,1.9c0,2.6,0,5.3,0,8c0,0.9-0.8,1.7-1.7,1.7c-0.5,0-1.1-0.5-1.6-0.5
	c-0.6,0-1.2,0.5-1.7,0.5c-0.9,0-1.7-0.8-1.7-1.7c0-2.6,0-5.2,0-7.9c0-1.6-0.2-2-2.3-2c-5.8,0-7.9,0-13.6,0c-0.4,0-1.5,0.2-0.7,0.5
	c1.1,0.4,0.6,2.1-0.6,1.8c-0.5-0.2-0.9-0.2-1,0c-0.1,0.2,0.1,0.5,0.5,0.8c0.2,0.2,0.4,0.4,0.6,0.5c0.9,0.8-0.3,2.2-1.3,1.4
	c-0.3-0.3-1.2-1-1.3-0.9c-0.2,0.1-0.1,0.5,0.2,1c0.5,1.1-1.1,1.9-1.7,0.8c-0.3-0.6-0.8,0.4-0.8,1c0,1,0,2,0,3c0,0.9-0.8,1.7-1.7,1.7
	c-0.6,0-1.2-0.6-1.8-0.6c-0.5,0-1,0.6-1.5,0.6c-0.9,0-1.7-0.8-1.7-1.7c0-0.7,0-1.5,0-2.2c0-1.3-0.2-1.3-0.7-0.5
	c-0.6,1.1-2.2,0.3-1.6-0.8c0.2-0.5,0.4-1.1,0.3-1.2c-0.1-0.1-0.3-0.1-0.4,0.1c-0.7,1-2.2-0.1-1.5-1.1c0.2-0.3-0.1-0.6-0.3-0.7
	c-0.3-0.1-0.4,0.2-0.4,1.4c0,1.7,0,3.3,0,5c0,0.9-0.8,1.7-1.7,1.7c-0.6,0-1.3-0.8-1.8-0.8c-0.5,0-1,0.8-1.5,0.8
	c-0.9,0-1.7-0.8-1.7-1.7c0-15.2,0-30.5,0-45.7c0-2.1-0.3-2.8-3-2.1c-1.4,0.4-2.8,0.9-4,1.6c-2.7,1.5-4.6,3.9-4.8,7.4
	c-0.2,3.1,1.1,5.3,2.5,7.6c1.4,2.4,2.9,4.9,2.9,8.6c0,1.2-0.3,2.5-0.9,3.8c-0.5,1-1.1,2-1.9,2.9c-0.4,0.5-0.5,0.8-0.5,1.4
	c0.1,2.6-2.7,2.1-4.6,2.7c-0.4,0.1-0.6,0.1-0.4-0.5c0.5-1.7,0.4-4.2,2.3-4.4c1.1-0.1,1.4-0.2,1.7-0.6c0.6-0.8,1.2-1.6,1.5-2.4
	c0.5-1,0.7-2,0.7-2.9c0-3.1-1.3-5.4-2.6-7.6c-1.5-2.6-3-5.1-2.7-8.8c0.3-4.3,2.5-7.2,5.8-9c2.4-1.4,5.3-2.2,8.4-2.6
	C47,57,49,56.8,51.1,56.8L51.1,56.8z M86.5,78.1c0.2,1.3,0.4,2.7,0.5,4c0.3,2.4,0.6,2.8,2.5,2.8c4.2,0,8.5,0,12.7,0
	c2.2,0,3.2-0.6,3.6-3.8c0.1-1,0.3-1.9,0.4-2.9c0.2-1.5,0.1-2.1-2-2.1c-5.4,0-10.8,0-16.2,0C86.7,76.1,86.4,76.6,86.5,78.1L86.5,78.1
	z"/>
</svg>
