<?xml version="1.0" encoding="utf-8"?>
<!-- Generator: Adobe Illustrator 24.0.3, SVG Export Plug-In . SVG Version: 6.00 Build 0)  -->
<svg version="1.1" id="Layer_1" xmlns="http://www.w3.org/2000/svg" xmlns:xlink="http://www.w3.org/1999/xlink" x="0px" y="0px"
	 viewBox="0 0 100 100" style="enable-background:new 0 0 100 100;" xml:space="preserve">
<style type="text/css">
	.st0{fill:none;stroke:#010101;stroke-width:2;stroke-linecap:round;stroke-linejoin:round;stroke-miterlimit:10;}
	.st1{fill:none;stroke:#010101;stroke-width:2;stroke-linecap:round;stroke-miterlimit:10;}
</style>
<g>
	<path class="st0" d="M86.8,72.4L86.8,72.4c-7.7,12.1-19.8,12.1-27.2,0l0,0l0,0C67.1,62.2,78.2,62.4,86.8,72.4L86.8,72.4z"/>
	<circle class="st1" cx="73.1" cy="69.3" r="4.5"/>
	<circle class="st0" cx="73.1" cy="72.4" r="21.2"/>
	<path class="st0" d="M72.7,51.2c0.1,0,0.3,0,0.4,0c5.9,0,11.3,2.4,15.1,6.4V46.6L72.4,31.3l15.8-15.8V5.8h-9.6L36.9,47.6V5.8H24.8
		V24H6.6v12.1h18.1v23.6L22.4,62L6.6,77.8v9.6h9.6L62.7,41L72.7,51.2z"/>
	<path class="st0" d="M52,72.4c0-11.7,9.5-21.2,21.2-21.2c5.9,0,11.3,2.4,15.1,6.4V5.8H6.6v81.6h51.7C54.4,83.6,52,78.3,52,72.4z"/>
</g>
</svg>
