<?xml version="1.0" encoding="utf-8"?>
<!-- Generator: Adobe Illustrator 24.2.1, SVG Export Plug-In . SVG Version: 6.00 Build 0)  -->
<svg version="1.1" id="Layer_1" xmlns="http://www.w3.org/2000/svg" xmlns:xlink="http://www.w3.org/1999/xlink" x="0px" y="0px"
	 viewBox="0 0 150 150" style="enable-background:new 0 0 150 150;" xml:space="preserve">
<style type="text/css">
	.st0{fill-rule:evenodd;clip-rule:evenodd;fill:#4A4A4A;}
</style>
<path class="st0" d="M74.1,11.5c34.7,0,62.7,28.1,62.7,62.7c0,34.7-28.1,62.7-62.7,62.7c-34.7,0-62.7-28.1-62.7-62.7
	C11.4,39.6,39.5,11.5,74.1,11.5L74.1,11.5z M52.3,48.7c-1.7-7.7,1.6-11.8,8.2-4.8c3.1,3.3,5.9,4.6,9.9,2.4c2.5-1.4,6.4-1.5,11-1.2
	c5.1,0.3,9.2-1,12.7-3.1c6.7-4,10.4-2.5,5.8,4c-5,7.1-2.9,13.8-0.5,20.8c2.2,6.5,2.8,12.9,1.5,19.3c-0.9,4.5,0,8.1,2.2,11.9
	c4.4,7.6-0.8,9.9-7.7,7.3c-5-1.8-8.8-1.7-13.8,0.7c-4.8,2.4-12.9,2.3-17.3,1.1c-3.8-1.1-6.2-1.7-12.3,0.3c-7.9,2.6-11,1-5.9-5.5
	c3.2-4.1,3.6-8.3,2.2-13.6c-1.9-7.6-0.2-14.5,3-20.5C54.7,61.5,53.7,55.3,52.3,48.7L52.3,48.7z M71.3,100.9c0.8,0,1.6,0,2.4,0
	c0.4,0,0.7,0.3,0.7,0.7c0,1.1,0,2.1,0,3.1c0,0.4-0.3,0.7-0.7,0.7c-0.8,0-1.6,0-2.4,0c-0.4,0-0.7-0.3-0.7-0.7c0-1.1,0-2.1,0-3.1
	C70.7,101.2,71,100.9,71.3,100.9L71.3,100.9z M69.4,96.4c-3.5-2.5-5.1-5.5-5.2-9.5c0-2,0.2-2.4,1.5-1.2c1.5,1.4,3,2.9,4.5,4.3
	c0.9,0.8,1.3,2,1.3,3.9c0,0.8,0,1.7,0,2.5C71.5,97.8,70.8,97.5,69.4,96.4L69.4,96.4z M64.2,67.5c0-2,0.2-2.4,1.5-1.2
	c1.5,1.4,3,2.9,4.5,4.3c0.9,0.8,1.3,2,1.3,3.9c0,0.8,0,1.7,0,2.5c0,0.8-0.4,1.2-0.7,0.8c-1.2-1.1-2.4-2.3-3.5-3.4
	C64.8,72.1,64.2,71.1,64.2,67.5L64.2,67.5z M80.8,67.5c0-2-0.2-2.4-1.5-1.2c-1.5,1.4-3,2.9-4.5,4.3c-0.8,0.8-1.3,2-1.3,3.9
	c0,0.8,0,1.7,0,2.5c0,0.8,0.4,1.2,0.8,0.8c1.2-1.1,2.3-2.3,3.5-3.4C80.2,72.1,80.8,71.1,80.8,67.5L80.8,67.5z M64.2,77.2
	c0-2,0.2-2.4,1.5-1.2c1.5,1.4,3,2.9,4.5,4.3c0.9,0.8,1.3,2,1.3,3.9c0,0.8,0,1.7,0,2.5c0,0.8-0.4,1.2-0.7,0.8
	c-1.2-1.1-2.4-2.3-3.5-3.4C64.8,81.8,64.2,80.8,64.2,77.2L64.2,77.2z M80.8,77.2c0-2-0.2-2.4-1.5-1.2c-1.5,1.4-3,2.9-4.5,4.3
	c-0.8,0.8-1.3,2-1.3,3.9c0,0.8,0,1.7,0,2.5c0,0.8,0.4,1.2,0.8,0.8c1.2-1.1,2.3-2.3,3.5-3.4C80.2,81.8,80.8,80.8,80.8,77.2L80.8,77.2
	z M75.7,96.4c3.5-2.5,5.1-5.5,5.1-9.5c0-2-0.2-2.4-1.5-1.2c-1.5,1.4-3,2.9-4.5,4.3c-0.8,0.8-1.3,2-1.3,3.9c0,0.8,0,1.7,0,2.5
	C73.5,97.8,74.2,97.5,75.7,96.4L75.7,96.4z M69.9,65.2c-2.4-3,0-7.3,2.3-12.6c1.3-3.2,1.9-2.1,2.7,1.1c1.1,4.1,2,8.1-0.3,11.3
	C72.9,67.4,71.9,67.6,69.9,65.2L69.9,65.2z"/>
</svg>
