<?xml version="1.0" encoding="utf-8"?>
<!-- Generator: Adobe Illustrator 24.1.2, SVG Export Plug-In . SVG Version: 6.00 Build 0)  -->
<svg version="1.1" id="Layer_1" xmlns="http://www.w3.org/2000/svg" xmlns:xlink="http://www.w3.org/1999/xlink" x="0px" y="0px"
	 viewBox="0 0 150 150" style="enable-background:new 0 0 150 150;" xml:space="preserve">
<style type="text/css">
	.st0{fill:#4A4A4A;}
</style>
<path class="st0" d="M75,8C38.5,8,9,37.5,9,74s29.5,66,66,66s66-29.5,66-66S111.5,8,75,8z M100.8,103.1c0,1.9-1.5,3.4-3.4,3.4H50.7
	c-1.9,0-3.4-1.5-3.4-3.4V44.9c0-1.9,1.5-3.4,3.4-3.4h46.8c1.1,0,2,0.5,2.6,1.3h-2.7H51v2h28.2v31.9l6.2-4.6l5.9,4.8l0.2-32.2h9.3
	c0,0.1,0,0.1,0,0.2V103.1z"/>
</svg>
