<?xml version="1.0" encoding="utf-8"?>
<!-- Generator: Adobe Illustrator 24.0.3, SVG Export Plug-In . SVG Version: 6.00 Build 0)  -->
<svg version="1.1" id="Layer_1" xmlns="http://www.w3.org/2000/svg" xmlns:xlink="http://www.w3.org/1999/xlink" x="0px" y="0px"
	 viewBox="0 0 100 100" style="enable-background:new 0 0 100 100;" xml:space="preserve">
<style type="text/css">
	.st0{fill:none;stroke:#76ba73;stroke-width:2;stroke-linecap:round;stroke-miterlimit:10;}
	.st1{fill:none;}
	.st2{fill:none;stroke:#76ba73;stroke-width:2;stroke-linejoin:round;stroke-miterlimit:10;}
	.st3{fill:none;stroke:#76ba73;stroke-width:2;stroke-linecap:round;stroke-linejoin:round;stroke-miterlimit:10;}
</style>
<path class="st0" d="M88.9,50.1c0,23.4-16.9,42.5-42.3,42.3c-0.3,0-0.3-84.7,0-84.7C71.9,7.9,88.9,26.7,88.9,50.1z"/>
<line class="st0" x1="46.5" y1="92.4" x2="46.5" y2="7.7"/>
<path class="st0" d="M46.5,30.4c11.4,0,22-3.5,30.7-9.5"/>
<path class="st0" d="M78.1,78.3C69.2,72,58.3,68.2,46.5,68.2"/>
<path class="st0" d="M46.5,92.4c0.3,0,0.6,0,1,0c12.3-10,20.2-25.2,20.2-42.3S59.8,17.7,47.5,7.8c-0.3,0-0.6,0-1,0"/>
<line class="st0" x1="46.2" y1="50.1" x2="88.9" y2="50.1"/>
<path class="st1" d="M42.5,39.7C42.5,39.7,42.5,39.7,42.5,39.7C42.5,39.7,42.5,39.7,42.5,39.7z"/>
<path class="st1" d="M43.2,41C43.2,41,43.2,40.9,43.2,41C43.2,40.9,43.2,41,43.2,41z"/>
<g>
	<path class="st1" d="M42.1,36.4C42,36.4,42,36.3,42.1,36.4C42,36.3,42,36.4,42.1,36.4z"/>
	<path class="st1" d="M43,37.1C43,37.1,43,37.1,43,37.1C43,37.1,43,37.1,43,37.1z"/>
	<path class="st1" d="M37.6,34.1c-0.1,0-0.1,0-0.2-0.1C37.5,34.1,37.5,34.1,37.6,34.1z"/>
	<path class="st2" d="M46.3,41.4C46.3,41.4,46.3,41.4,46.3,41.4c-0.2-0.5-0.5-0.9-0.7-1.3c0,0,0,0,0,0C44.9,39,44,38,43,37.1
		c0,0,0,0,0,0c-0.3-0.3-0.6-0.5-1-0.8c0,0-0.1,0-0.1-0.1c-1.3-0.9-2.8-1.7-4.4-2.2c-0.1,0-0.1,0-0.2-0.1c-1.6-0.5-3.3-0.8-5-1l0,0
		c-10-0.9-20.9,3.4-20.9,3.4c6.6,0,11.1,2.7,14.1,5.9c3.5,3.6,5.2,8.4,5.2,13.3v8.6v0.5v9.4c0,14.9,7.7,18.4,15.7,18.4V41.7
		C46.4,41.6,46.4,41.5,46.3,41.4z M35.5,41.9c0,0,7.3,0.9,6.4,13.4C42.9,42.9,35.5,41.9,35.5,41.9z M37.1,77.7c0,0-0.6,7.9,8,8.9
		C36.6,85.6,37.1,77.7,37.1,77.7z"/>
	<rect x="40.4" y="13.6" class="st3" width="6.1" height="6"/>
	<rect x="40.4" y="25.6" class="st3" width="6.1" height="6"/>
	<rect x="40.4" y="19.6" class="st3" width="6.1" height="6"/>
	<path class="st3" d="M37.6,34.1c1.6,0.5,3.1,1.2,4.4,2.2c0,0,0.1,0,0.1,0.1c0.3,0.2,0.6,0.5,1,0.8c0,0,0,0,0,0c1,0.8,1.8,1.8,2.6,3
		c0,0,0,0,0,0c0.2,0.4,0.5,0.8,0.7,1.2c0,0,0,0,0,0.1c0.1,0.1,0.1,0.2,0.2,0.3v-4.2h-2.9h2.9v-6h-6.1v3v-3h-6.4h6.4v-6h-6.4h6.4v-6
		h-4.8h4.8v-6h-3.2h3.2v-3v3h6.1v-6c-0.1,0-0.1,0-0.1,0s-7.5-0.1-11.2,8.9c0,0,0,0,0,0c-0.1,0.3-1.8,5.5-2.8,16.3
		c0,0.1,0,0.1,0.1,0.2c1.7,0.1,3.4,0.5,5,1C37.5,34.1,37.5,34.1,37.6,34.1z"/>
	<path class="st2" d="M42,36.3c-1.3-0.9-2.8-1.7-4.4-2.2C39.2,34.7,40.6,35.4,42,36.3z"/>
	<path class="st2" d="M43,37.1c-0.3-0.3-0.6-0.5-1-0.8C42.4,36.6,42.7,36.9,43,37.1z"/>
	<path class="st2" d="M43,37.1c1,0.8,1.8,1.8,2.6,3C44.9,39,44,38,43,37.1z"/>
	<path class="st2" d="M37.4,34.1c-1.6-0.5-3.3-0.8-5-1l0,0C34.1,33.3,35.8,33.6,37.4,34.1z"/>
</g>
</svg>
