<?xml version="1.0" encoding="utf-8"?>
<!-- Generator: Adobe Illustrator 24.0.3, SVG Export Plug-In . SVG Version: 6.00 Build 0)  -->
<svg version="1.1" id="Layer_1" xmlns="http://www.w3.org/2000/svg" xmlns:xlink="http://www.w3.org/1999/xlink" x="0px" y="0px"
	 viewBox="0 0 100 100" style="enable-background:new 0 0 100 100;" xml:space="preserve">
<style type="text/css">
	.st0{fill:none;stroke:#76ba73;stroke-width:2;stroke-miterlimit:10;}
</style>
<g>
	<polygon class="st0" points="44.6,28.9 37.6,19.1 9.6,19.1 9.6,28.9 9.6,89.3 91,89.3 91,28.9 	"/>
	<line class="st0" x1="37.6" y1="19.1" x2="51.7" y2="38.7"/>
	<line class="st0" x1="51.7" y1="38.7" x2="91" y2="38.7"/>
	<line class="st0" x1="11" y1="89.3" x2="89.6" y2="89.3"/>
	<polygon class="st0" points="91,23.3 48.9,23.3 41.8,13.5 13.8,13.5 13.8,19.1 37.6,19.1 44.6,28.9 91,28.9 	"/>
	<polygon class="st0" points="91,17.7 53.1,17.7 46,7.9 18,7.9 18,13.5 41.8,13.5 48.9,23.3 91,23.3 	"/>
	<rect x="47.5" y="57" class="st0" width="36.5" height="25.3"/>
	<line class="st0" x1="54.5" y1="64" x2="68.5" y2="64"/>
	<line class="st0" x1="54.5" y1="69.6" x2="76.9" y2="69.6"/>
	<line class="st0" x1="54.5" y1="75.2" x2="76.9" y2="75.2"/>
</g>
</svg>
