<?xml version="1.0" encoding="utf-8"?>
<!-- Generator: Adobe Illustrator 24.2.1, SVG Export Plug-In . SVG Version: 6.00 Build 0)  -->
<svg version="1.1" id="Layer_1" xmlns="http://www.w3.org/2000/svg" xmlns:xlink="http://www.w3.org/1999/xlink" x="0px" y="0px"
	 viewBox="0 0 150 150" style="enable-background:new 0 0 150 150;" xml:space="preserve">
<style type="text/css">
	.st0{fill:#4A4A4A;}
	.st1{fill-rule:evenodd;clip-rule:evenodd;fill:#4A4A4A;}
</style>
<path class="st0" d="M74.2,5.7C36.4,5.7,5.7,36.4,5.7,74.2s30.7,68.5,68.5,68.5c37.8,0,68.5-30.7,68.5-68.5S112,5.7,74.2,5.7z
	 M101.3,74.6v25.3c0,4.6-3.7,8.3-8.3,8.3H82.4c0,0-0.2-16-0.2-18.7S80,86.9,80,86.9s-4.8,0-9.4,0c-4.6,0-3.8,2.2-3.8,2.2v19.2h-11
	c-4.6,0-8.3-3.7-8.3-8.3V76c-2.5-0.6-9.1-3.3,4-15.8L68.8,43c0,0,5.8-6.6,12,0l21.3,21.7C102.1,64.8,108.6,73.5,101.3,74.6z"/>
<path class="st1" d="M78.3,72.6h-8.3c-1.5,0-2.7-1.2-2.7-2.7v-8.3c0-1.5,1.2-2.7,2.7-2.7h8.3c1.5,0,2.7,1.2,2.7,2.7v8.3
	C81,71.4,79.8,72.6,78.3,72.6z"/>
</svg>
