<?xml version="1.0" encoding="utf-8"?>
<!-- Generator: Adobe Illustrator 24.0.3, SVG Export Plug-In . SVG Version: 6.00 Build 0)  -->
<svg version="1.1" id="Layer_1" xmlns="http://www.w3.org/2000/svg" xmlns:xlink="http://www.w3.org/1999/xlink" x="0px" y="0px"
	 viewBox="0 0 100 100" style="enable-background:new 0 0 100 100;" xml:space="preserve">
<style type="text/css">
	.st0{fill:none;stroke:#76ba73;stroke-width:2;stroke-linecap:round;stroke-miterlimit:10;}
	.st1{fill:none;stroke:#76ba73;stroke-width:2;stroke-miterlimit:10;}
</style>
<g>
	<g>
		<line class="st0" x1="58.1" y1="73.4" x2="90.5" y2="73.4"/>
		<line class="st0" x1="74.3" y1="89.8" x2="74.3" y2="57.1"/>
	</g>
	<path class="st1" d="M35.1,46.6h-18c-5.7,0-10.4-4.6-10.4-10.4V18.1c0-5.7,4.6-10.4,10.4-10.4H35c5.7,0,10.4,4.6,10.4,10.4v18.2
		C45.4,42,40.8,46.6,35.1,46.6z"/>
	<path class="st1" d="M35.1,92.6h-18c-5.7,0-10.4-4.6-10.4-10.4V64c0-5.7,4.6-10.4,10.4-10.4H35c5.7,0,10.4,4.6,10.4,10.4v18.2
		C45.4,87.9,40.8,92.6,35.1,92.6z"/>
	<path class="st1" d="M83.3,46.6h-18c-5.7,0-10.4-4.6-10.4-10.4V18.1c0-5.7,4.6-10.4,10.4-10.4h17.9c5.7,0,10.4,4.6,10.4,10.4v18.2
		C93.6,42,89,46.6,83.3,46.6z"/>
</g>
</svg>
