<?xml version="1.0" encoding="utf-8"?>
<!-- Generator: Adobe Illustrator 24.0.3, SVG Export Plug-In . SVG Version: 6.00 Build 0)  -->
<svg version="1.1" id="Layer_1" xmlns="http://www.w3.org/2000/svg" xmlns:xlink="http://www.w3.org/1999/xlink" x="0px" y="0px"
	 viewBox="0 0 100 100" style="enable-background:new 0 0 100 100;" xml:space="preserve">
<style type="text/css">
	.st0{fill:none;stroke:#76ba73;stroke-width:2;stroke-miterlimit:10;}
	.st1{fill:#76ba73;}
</style>
<g>
	<path class="st0" d="M53.6,46.6h40.7C92.8,24.8,75.4,7.4,53.6,5.9V46.6z"/>
	<path class="st0" d="M82.7,79.3c6.6-7.1,10.8-16.4,11.5-26.7H56.1L82.7,79.3z"/>
	<path class="st0" d="M47.5,52.6V5.9C24.7,7.4,6.7,26.4,6.7,49.6c0,24.2,19.6,43.8,43.8,43.8c10.6,0,20.3-3.7,27.8-10L47.5,52.6z"/>
	<circle class="st1" cx="58.1" cy="10.3" r="1.5"/>
	<circle class="st1" cx="58.1" cy="19.4" r="1.5"/>
	<circle class="st1" cx="62.6" cy="14.8" r="1.5"/>
	<circle class="st1" cx="71.7" cy="14.8" r="1.5"/>
	<circle class="st1" cx="67.2" cy="10.3" r="1.5"/>
	<circle class="st1" cx="67.2" cy="19.4" r="1.5"/>
	<circle class="st1" cx="76.2" cy="19.4" r="1.5"/>
	<circle class="st1" cx="80.8" cy="23.9" r="1.5"/>
	<circle class="st1" cx="62.6" cy="23.9" r="1.5"/>
	<circle class="st1" cx="71.7" cy="23.9" r="1.5"/>
	<circle class="st1" cx="89.8" cy="33" r="1.5"/>
	<circle class="st1" cx="80.8" cy="33" r="1.5"/>
	<circle class="st1" cx="85.3" cy="28.4" r="1.5"/>
	<circle class="st1" cx="85.3" cy="37.5" r="1.5"/>
	<circle class="st1" cx="58.1" cy="28.4" r="1.5"/>
	<circle class="st1" cx="58.1" cy="37.5" r="1.5"/>
	<circle class="st1" cx="62.6" cy="33" r="1.5"/>
	<circle class="st1" cx="71.7" cy="33" r="1.5"/>
	<circle class="st1" cx="67.2" cy="28.4" r="1.5"/>
	<circle class="st1" cx="76.2" cy="28.4" r="1.5"/>
	<circle class="st1" cx="67.2" cy="37.5" r="1.5"/>
	<circle class="st1" cx="76.2" cy="37.5" r="1.5"/>
	<circle class="st1" cx="89.8" cy="42.1" r="1.5"/>
	<circle class="st1" cx="80.8" cy="42.1" r="1.5"/>
	<circle class="st1" cx="62.6" cy="42.1" r="1.5"/>
	<circle class="st1" cx="71.7" cy="42.1" r="1.5"/>
	<circle class="st1" cx="80.8" cy="73.8" r="1.5"/>
	<circle class="st1" cx="71.7" cy="64.7" r="1.5"/>
	<circle class="st1" cx="67.2" cy="60.2" r="1.5"/>
	<circle class="st1" cx="89.8" cy="64.7" r="1.5"/>
	<circle class="st1" cx="80.8" cy="64.7" r="1.5"/>
	<circle class="st1" cx="85.3" cy="69.3" r="1.5"/>
	<circle class="st1" cx="76.2" cy="69.3" r="1.5"/>
	<circle class="st1" cx="85.3" cy="60.2" r="1.5"/>
	<circle class="st1" cx="76.2" cy="60.2" r="1.5"/>
	<circle class="st1" cx="62.6" cy="55.7" r="1.5"/>
	<circle class="st1" cx="71.7" cy="55.7" r="1.5"/>
	<circle class="st1" cx="89.8" cy="55.7" r="1.5"/>
	<circle class="st1" cx="80.8" cy="55.7" r="1.5"/>
</g>
</svg>
