<?xml version="1.0" encoding="utf-8"?>
<!-- Generator: Adobe Illustrator 24.1.2, SVG Export Plug-In . SVG Version: 6.00 Build 0)  -->
<svg version="1.1" id="Layer_1" xmlns="http://www.w3.org/2000/svg" xmlns:xlink="http://www.w3.org/1999/xlink" x="0px" y="0px"
	 viewBox="0 0 150 150" style="enable-background:new 0 0 150 150;" xml:space="preserve">
<style type="text/css">
	.st0{fill-rule:evenodd;clip-rule:evenodd;fill:#4A4A4A;}
</style>
<path class="st0" d="M75.4,7c37.8,0,68.4,30.6,68.4,68.4c0,37.8-30.6,68.4-68.4,68.4C37.6,143.8,7,113.2,7,75.4
	C7,37.6,37.6,7,75.4,7L75.4,7z M111.3,89.4c4,0,7.3,3.3,7.3,7.3c0,4-3.3,7.3-7.3,7.3c-4,0-7.3-3.3-7.3-7.3
	C104,92.7,107.2,89.4,111.3,89.4L111.3,89.4z M35.5,48.7c1,0,2,0,2.9,0c0.4,0,0.7,0.3,0.7,0.7c0,3.6,0,7.1,0,10.7
	c0,0.4-0.3,0.7-0.7,0.7c-1,0-2,0-2.9,0c-0.4,0-0.7-0.3-0.7-0.7c0-3.6,0-7.1,0-10.7C34.8,49.1,35.1,48.7,35.5,48.7L35.5,48.7z
	 M31.6,62.7c3.1,0,6.3,0,9.4,0c0.4,0,0.7,0.3,0.7,0.7c0,0.4,0,0.7,0,1.1c0,0.4-0.3,0.7-0.7,0.7c-3.1,0-6.3,0-9.4,0
	c-0.4,0-0.7-0.3-0.7-0.7c0-0.4,0-0.7,0-1.1C30.9,63,31.2,62.7,31.6,62.7L31.6,62.7z M100.7,73.4c12.3-15.3,14.1-15.7,25,0
	c0.3,0.5,0,1.1-0.6,1.1c-8,0-15.9,0-23.9,0C100.6,74.6,100.3,73.9,100.7,73.4L100.7,73.4z M31.6,70.6c3.8,0,7.6,0,11.4,0
	c0.4,0,0.7,0.3,0.7,0.7c0,0.6,0,1.1,0,1.7c0,0.4-0.3,0.7-0.7,0.7c-3.8,0-7.6,0-11.4,0c-0.4,0-0.7-0.3-0.7-0.7c0-0.6,0-1.2,0-1.7
	C30.9,70.9,31.2,70.6,31.6,70.6L31.6,70.6z M53.7,64.3c5.9,0,11.9,0,17.8,0c0.6,0,1.1-0.5,1.1-1.1c-0.3-4.4-0.6-8.9-0.9-13.3
	c0-0.6-0.5-1-1.1-1c-4.6,0-9.3,0-13.9,0c-0.5,0-0.9,0.3-1,0.8c-1,4.4-2,8.9-3,13.3C52.5,63.7,53,64.3,53.7,64.3L53.7,64.3z
	 M59.8,69.3c5.1,0,10.1,0,15.2,0c0.5,0,1,0.2,1.4,0.6c2.8,3.2,5.6,6.4,8.3,9.6c0.3,0.3,0.2,0.7-0.1,1c-0.4,0.4-0.8,0.7-1.3,1.1
	c-0.3,0.3-0.7,0.2-1-0.1c-2.5-2.8-4.9-5.7-7.4-8.5c-0.4-0.4-0.8-0.6-1.4-0.6c-5.1,0-10.2,0-15.3,0c-0.6,0-1.2,0.3-1.5,0.9
	c-3.9,6.3-7.7,12.6-11.6,18.9c-0.3,0.5-0.9,0.8-1.5,0.8c-2.2,0-4.4,0-6.6,0c-0.6,0-1-0.2-1.4-0.7c-1.6-2-3.2-4-4.7-6
	c-0.4-0.4-0.8-0.7-1.4-0.7c-2.9,0-5.7,0-8.6,0c-0.4,0-0.7-0.3-0.7-0.7c0-0.5,0-0.9,0-1.4c0-0.4,0.3-0.7,0.7-0.7c3.9,0,7.8,0,11.8,0
	c1,0-0.1-1.4-1.9-1.4c-1.2,0-2.5,0-3.7,0c-0.4,0-0.7-0.3-0.7-0.7c0-4.3,0-8.6,0-13c0-0.4,0.3-0.7,0.7-0.7c6.8,0,13.5,0,20.3,0
	c0.7,0,1.3-0.5,1.4-1.1c1.5-6.5,2.9-13,4.4-19.4c0.1-0.5,0.5-0.8,1-0.8c6.5,0,13,0,19.5,0c0.6,0,1,0.4,1.1,1
	c0.4,6.7,0.9,13.4,1.3,20.1c0,0.4-0.3,0.8-0.7,0.8c-4.8,0-9.5,0-14.3,0c-0.9,0-1.2,0.6-1.6,1.2C59.3,69,59.5,69.3,59.8,69.3
	L59.8,69.3z M95.6,81c11.3,0,22.5,0,33.8,0c0.4,0,0.7,0.3,0.7,0.7c0,3,0,6,0,9c0,0.6-0.3,1.2-0.9,1.5c-2,1.2-4,2.4-6,3.5
	c-0.5,0.3-0.8,0.3-1.4,0.3c-0.7,0-1.4,0-1.5-0.9c-0.7-4.3-4.5-7.6-9-7.6c-4.5,0-8.2,3.3-9,7.6c-0.1,0.5-0.5,0.9-1,0.9
	c-6,0-12,0-18,0c-0.5,0-0.8-0.5-0.7-0.9c0.3-0.9,0.5-1.8,0.6-2.8c0.1-0.5,0.5-0.9,1.1-0.9c3.3,0,6.6,0,9.9,0c0.4,0,0.7-0.3,0.7-0.7
	c0-3,0-6,0-9C94.9,81.3,95.2,81,95.6,81L95.6,81z M94,76.4c12.3,0,24.6,0,36.9,0c0.4,0,0.7,0.3,0.7,0.7c0,0.5,0,0.9,0,1.4
	c0,0.4-0.3,0.7-0.7,0.7c-12.3,0-24.6,0-36.9,0c-0.4,0-0.7-0.3-0.7-0.7c0-0.5,0-0.9,0-1.4C93.3,76.7,93.7,76.4,94,76.4L94,76.4z
	 M66.3,74.8c8.4,0,15.2,6.8,15.2,15.2c0,8.4-6.8,15.2-15.2,15.2c-8.4,0-15.2-6.8-15.2-15.2C51.1,81.6,57.9,74.8,66.3,74.8L66.3,74.8
	z M66.3,79.1c6,0,10.9,4.9,10.9,10.9c0,6-4.9,10.9-10.9,10.9c-6,0-10.9-4.9-10.9-10.9C55.4,84,60.3,79.1,66.3,79.1L66.3,79.1z
	 M111.3,92.3c2.5,0,4.4,2,4.4,4.4c0,2.5-2,4.4-4.4,4.4c-2.5,0-4.4-2-4.4-4.4C106.8,94.2,108.8,92.3,111.3,92.3L111.3,92.3z
	 M26.4,92.3c2.5,0,4.4,2,4.4,4.4c0,2.5-2,4.4-4.4,4.4c-2.4,0-4.4-2-4.4-4.4C22,94.2,24,92.3,26.4,92.3L26.4,92.3z M26.4,89.4
	c4,0,7.3,3.3,7.3,7.3c0,4-3.3,7.3-7.3,7.3c-4,0-7.3-3.3-7.3-7.3C19.1,92.7,22.4,89.4,26.4,89.4L26.4,89.4z"/>
</svg>
