<?xml version="1.0" encoding="utf-8"?>
<!-- Generator: Adobe Illustrator 24.0.3, SVG Export Plug-In . SVG Version: 6.00 Build 0)  -->
<svg version="1.1" id="Layer_1" xmlns="http://www.w3.org/2000/svg" xmlns:xlink="http://www.w3.org/1999/xlink" x="0px" y="0px"
	 viewBox="0 0 100 100" style="enable-background:new 0 0 100 100;" xml:space="preserve">
<style type="text/css">
	.st0{fill:none;stroke:#010101;stroke-width:3.0238;stroke-linecap:round;stroke-miterlimit:10;}
</style>
<g>
	<circle class="st0" cx="49.4" cy="50.4" r="37.8"/>
	<line class="st0" x1="39.6" y1="13.9" x2="38.1" y2="8"/>
	<line class="st0" x1="60.8" y1="92.7" x2="59.2" y2="86.9"/>
	<line class="st0" x1="87.2" y1="50.4" x2="93.3" y2="50.4"/>
	<line class="st0" x1="5.6" y1="50.4" x2="11.6" y2="50.4"/>
	<line class="st0" x1="76.2" y1="77.1" x2="80.4" y2="81.4"/>
	<line class="st0" x1="18.4" y1="19.4" x2="22.7" y2="23.7"/>
	<line class="st0" x1="76.2" y1="23.7" x2="80.4" y2="19.4"/>
	<line class="st0" x1="18.4" y1="81.4" x2="22.7" y2="77.1"/>
	<line class="st0" x1="30.5" y1="17.6" x2="27.5" y2="12.4"/>
	<line class="st0" x1="71.4" y1="88.3" x2="68.3" y2="83.1"/>
	<line class="st0" x1="49.4" y1="88.2" x2="49.4" y2="94.2"/>
	<line class="st0" x1="49.4" y1="6.5" x2="49.4" y2="12.6"/>
	<line class="st0" x1="16.7" y1="31.5" x2="11.5" y2="28.5"/>
	<line class="st0" x1="87.4" y1="72.3" x2="82.2" y2="69.3"/>
	<line class="st0" x1="12.9" y1="40.6" x2="7.1" y2="39"/>
	<line class="st0" x1="91.8" y1="61.7" x2="85.9" y2="60.2"/>
	<line class="st0" x1="12.9" y1="60.2" x2="7.1" y2="61.7"/>
	<line class="st0" x1="91.8" y1="39" x2="85.9" y2="40.6"/>
	<line class="st0" x1="16.7" y1="69.3" x2="11.5" y2="72.3"/>
	<line class="st0" x1="87.4" y1="28.5" x2="82.2" y2="31.5"/>
	<line class="st0" x1="68.3" y1="17.6" x2="71.4" y2="12.4"/>
	<line class="st0" x1="27.5" y1="88.3" x2="30.5" y2="83.1"/>
	<line class="st0" x1="59.2" y1="13.9" x2="60.8" y2="8"/>
	<line class="st0" x1="38.1" y1="92.7" x2="39.6" y2="86.9"/>
	<line class="st0" x1="49.4" y1="12.6" x2="49.4" y2="35.3"/>
	<line class="st0" x1="16.7" y1="69.3" x2="36.3" y2="57.9"/>
	<line class="st0" x1="82.2" y1="69.3" x2="62.5" y2="57.9"/>
	<circle class="st0" cx="49.4" cy="50.4" r="15.1"/>
	<circle class="st0" cx="49.4" cy="50.4" r="7.6"/>
</g>
</svg>
